<svg width="0" height="0" class="hidden">
  <symbol fill="none" xmlns="http://www.w3.org/2000/svg" viewBox="0 0 32 39" id="map">
    <g clip-path="url(#clip0_2_30)">
      <path fill-rule="evenodd" clip-rule="evenodd" d="M21.0204 16.921C21.0204 14.1585 18.7819 11.92 16.0194 11.92C13.2589 11.92 11.0204 14.1585 11.0204 16.921C11.0204 19.6815 13.2589 21.92 16.0194 21.92C18.7819 21.92 21.0204 19.6815 21.0204 16.921Z" stroke="#FF3D00" stroke-width="1.5" stroke-linecap="round" stroke-linejoin="round"></path>
      <path fill-rule="evenodd" clip-rule="evenodd" d="M15.999 37.5C10.203 37.5 1 27.4173 1 16.6973C1 8.30493 7.7142 1.5 15.999 1.5C24.2838 1.5 31 8.30493 31 16.6973C31 27.4173 21.797 37.5 15.999 37.5Z" stroke="#FF3D00" stroke-width="1.5" stroke-linecap="round" stroke-linejoin="round"></path>
    </g>
    <defs>
      <clipPath id="clip0_2_30">
        <rect width="32" height="39" fill="white"></rect>
      </clipPath>
    </defs>
  </symbol>
  <symbol fill="none" xmlns="http://www.w3.org/2000/svg" viewBox="0 0 24 24" id="telegram">
    <g clip-path="url(#clip0_5_4)">
      <path d="M11.944 3.26667e-05C8.77112 0.0148396 5.73324 1.28566 3.4949 3.53449C1.25656 5.78332 -3.4549e-05 8.82711 7.12435e-10 12C7.12441e-10 15.1826 1.26428 18.2349 3.51472 20.4853C5.76516 22.7357 8.8174 24 12 24C15.1826 24 18.2348 22.7357 20.4853 20.4853C22.7357 18.2349 24 15.1826 24 12C24 8.81743 22.7357 5.76519 20.4853 3.51475C18.2348 1.26431 15.1826 3.26667e-05 12 3.26667e-05C11.9813 -1.08889e-05 11.9627 -1.08889e-05 11.944 3.26667e-05ZM16.906 7.22403C17.006 7.22203 17.227 7.24703 17.371 7.36403C17.4667 7.44713 17.5277 7.56311 17.542 7.68903C17.558 7.78203 17.578 7.99503 17.562 8.16103C17.382 10.059 16.6 14.663 16.202 16.788C16.034 17.688 15.703 17.989 15.382 18.018C14.686 18.083 14.157 17.558 13.482 17.116C12.426 16.423 11.829 15.992 10.804 15.316C9.619 14.536 10.387 14.106 11.062 13.406C11.239 13.222 14.309 10.429 14.369 10.176C14.376 10.144 14.383 10.026 14.313 9.96403C14.243 9.90203 14.139 9.92303 14.064 9.94003C13.958 9.96403 12.271 11.08 9.003 13.285C8.523 13.615 8.09 13.775 7.701 13.765C7.273 13.757 6.449 13.524 5.836 13.325C5.084 13.08 4.487 12.951 4.539 12.536C4.566 12.32 4.864 12.099 5.432 11.873C8.93 10.349 11.262 9.34403 12.43 8.85903C15.762 7.47303 16.455 7.23203 16.906 7.22403Z" fill="#FF5C00"></path>
    </g>
    <defs>
      <clipPath id="clip0_5_4">
        <rect width="24" height="24" fill="white"></rect>
      </clipPath>
    </defs>
  </symbol>
  <symbol fill="none" xmlns="http://www.w3.org/2000/svg" viewBox="0 0 24 20" id="Twitter">
    <path d="M23.953 2.57C23.0545 2.96561 22.1026 3.22674 21.128 3.345C22.1541 2.72825 22.9224 1.76105 23.291 0.622003C22.34 1.177 21.286 1.581 20.164 1.806C19.4238 1.01443 18.4429 0.489425 17.3736 0.312505C16.3044 0.135585 15.2067 0.316654 14.2509 0.827594C13.2952 1.33853 12.5349 2.15075 12.0881 3.13813C11.6412 4.1255 11.533 5.23277 11.78 6.288C7.69 6.095 4.067 4.13 1.64 1.162C1.19879 1.91182 0.968664 2.76703 0.974 3.637C0.974 5.347 1.844 6.85 3.162 7.733C2.38086 7.70814 1.61697 7.49694 0.934 7.117V7.177C0.933557 8.31339 1.32627 9.41494 2.04551 10.2948C2.76474 11.1746 3.76621 11.7785 4.88 12.004C4.1583 12.1974 3.40241 12.2264 2.668 12.089C2.98412 13.067 3.59766 13.9219 4.42301 14.5345C5.24837 15.1471 6.24435 15.4867 7.272 15.506C5.53153 16.872 3.38248 17.6133 1.17 17.611C0.78 17.611 0.391 17.588 0 17.544C2.25571 18.9883 4.87851 19.755 7.557 19.753C16.61 19.753 21.555 12.257 21.555 5.768C21.555 5.558 21.555 5.348 21.54 5.138C22.506 4.44287 23.3392 3.57982 24 2.59L23.953 2.57Z" fill="#FF5C00"></path>
  </symbol>
  <symbol fill="none" xmlns="http://www.w3.org/2000/svg" viewBox="0 0 40 40" id="address">
    <path fill-rule="evenodd" clip-rule="evenodd" d="M12.401 27.598C-1.39499 13.8004 0.566761 7.4823 2.02109 5.44631C2.20792 5.11724 6.81295 -1.77624 11.7492 2.26814C24.0016 12.3589 8.49021 10.9322 18.7788 21.2226C29.0695 31.5108 27.6428 15.9999 37.7318 28.2498C41.7763 33.188 34.8826 37.7928 34.5556 37.9775C32.5196 39.4339 26.1991 41.3956 12.401 27.598Z" stroke="#FF5C00" stroke-width="1.5" stroke-linecap="round" stroke-linejoin="round"></path>
  </symbol>
  <symbol fill="none" xmlns="http://www.w3.org/2000/svg" viewBox="0 0 39 39" id="icon">
    <path fill-rule="evenodd" clip-rule="evenodd" d="M1 19.5C1 33.374 5.626 38 19.5 38C33.374 38 38 33.374 38 19.5C38 5.626 33.374 1 19.5 1C5.626 1 1 5.626 1 19.5Z" stroke="#FF3D00" stroke-width="1.5" stroke-linecap="round" stroke-linejoin="round"></path>
    <path d="M12.5566 16.6162C12.5566 16.6162 17.3406 23.5882 19.5006 23.5882C21.6606 23.5882 26.4406 16.6162 26.4406 16.6162" stroke="#FF3D00" stroke-width="1.5" stroke-linecap="round" stroke-linejoin="round"></path>
  </symbol>
  <symbol fill="none" xmlns="http://www.w3.org/2000/svg" viewBox="0 0 24 24" id="linkedin">
    <g clip-path="url(#clip0_5_2)">
      <path d="M20.447 20.452H16.893V14.883C16.893 13.555 16.866 11.846 15.041 11.846C13.188 11.846 12.905 13.291 12.905 14.785V20.452H9.351V9H12.765V10.561H12.811C13.288 9.661 14.448 8.711 16.181 8.711C19.782 8.711 20.448 11.081 20.448 14.166L20.447 20.452ZM5.337 7.433C4.193 7.433 3.274 6.507 3.274 5.368C3.274 4.23 4.194 3.305 5.337 3.305C6.477 3.305 7.401 4.23 7.401 5.368C7.401 6.507 6.476 7.433 5.337 7.433ZM7.119 20.452H3.555V9H7.119V20.452ZM22.225 0H1.771C0.792 0 0 0.774 0 1.729V22.271C0 23.227 0.792 24 1.771 24H22.222C23.2 24 24 23.227 24 22.271V1.729C24 0.774 23.2 0 22.222 0H22.225Z" fill="#FF5C00"></path>
    </g>
    <defs>
      <clipPath id="clip0_5_2">
        <rect width="24" height="24" fill="white"></rect>
      </clipPath>
    </defs>
  </symbol>
</svg>